<svg width="30" height="30" viewBox="0 0 30 30" fill="none" xmlns="http://www.w3.org/2000/svg">
<g clip-path="url(#clip0_5738_5288)">
<path d="M13.75 4.99931H5C4.33696 4.99931 3.70107 5.2627 3.23223 5.73154C2.76339 6.20038 2.5 6.83627 2.5 7.49931V24.9993C2.5 25.6623 2.76339 26.2982 3.23223 26.7671C3.70107 27.2359 4.33696 27.4993 5 27.4993H22.5C23.163 27.4993 23.7989 27.2359 24.2678 26.7671C24.7366 26.2982 25 25.6623 25 24.9993V16.2493M23.125 3.12431C23.6223 2.62703 24.2967 2.34766 25 2.34766C25.7033 2.34766 26.3777 2.62703 26.875 3.12431C27.3723 3.62159 27.6517 4.29605 27.6517 4.99931C27.6517 5.70257 27.3723 6.37703 26.875 6.87431L15 18.7493L10 19.9993L11.25 14.9993L23.125 3.12431Z" stroke="#501600" stroke-width="3.5" stroke-linecap="round" stroke-linejoin="round"/>
</g>
<defs>
<clipPath id="clip0_5738_5288">
<rect width="30" height="30" fill="white"/>
</clipPath>
</defs>
</svg>
