<svg width="18" height="20" viewBox="0 0 18 20" fill="none" xmlns="http://www.w3.org/2000/svg">
<path d="M12.2402 0H8.34611C6.58209 0 5.18407 0 4.09105 0.148004C2.96504 0.300009 2.05403 0.620018 1.33602 1.34104C0.617008 2.06206 0.298004 2.97709 0.147002 4.10712C7.45068e-08 5.20515 0 6.60819 0 8.37924V14.2174C0 15.7255 0.920012 17.0175 2.22703 17.5595C2.16003 16.6495 2.16003 15.3744 2.16003 14.3124V9.30227C2.16003 8.02123 2.16003 6.9162 2.27803 6.03217C2.40503 5.08415 2.69104 4.17612 3.42504 3.4391C4.15905 2.70208 5.06407 2.41507 6.00808 2.28707C6.88809 2.16906 7.9881 2.16906 9.26512 2.16906H12.3352C13.6112 2.16906 14.7092 2.16906 15.5902 2.28707C15.3263 1.61334 14.8655 1.03477 14.2679 0.626801C13.6704 0.218834 12.9637 0.000405834 12.2402 0Z" fill="#5B1E06"/>
<path d="M3.60107 9.39645C3.60107 6.67037 3.60107 5.30733 4.44509 4.46031C5.2881 3.61328 6.64511 3.61328 9.36115 3.61328H12.2412C14.9562 3.61328 16.3142 3.61328 17.1582 4.46031C18.0023 5.30733 18.0013 6.67037 18.0013 9.39645V14.2166C18.0013 16.9427 18.0013 18.3057 17.1582 19.1527C16.3142 19.9998 14.9562 19.9998 12.2412 19.9998H9.36115C6.64611 19.9998 5.2881 19.9998 4.44509 19.1527C3.60107 18.3057 3.60107 16.9427 3.60107 14.2166V9.39645Z" fill="#5B1E06"/>
</svg>
