<svg width="13" height="15" viewBox="0 0 13 15" fill="none" xmlns="http://www.w3.org/2000/svg">
<path d="M2.68263 10.7907C1.97607 10.7907 1.40138 10.5354 0.970442 10.0286C0.539504 9.52169 0.256692 8.7695 0.0920043 7.67513C-0.150496 6.06231 0.0901293 4.70294 0.769504 3.84762C1.1695 3.34387 1.6945 3.05262 2.28763 3.00575C2.79544 2.96512 3.5545 3.17106 4.28763 4.38075C4.74669 5.13825 5.09575 6.1445 5.24544 7.14138C5.42638 8.34481 5.29169 9.23075 4.83357 9.84919C4.46982 10.3404 3.91044 10.6448 3.17075 10.7554C3.00913 10.7792 2.84598 10.791 2.68263 10.7907ZM3.90669 15.0011C3.49388 15.0011 3.07544 14.8689 2.69857 14.6148C2.15476 14.2463 1.77833 13.678 1.65107 13.0336C1.562 12.5754 1.61544 12.2114 1.81419 11.9198C2.137 11.4464 2.71638 11.3398 3.3295 11.2267C3.39419 11.2148 3.45982 11.2029 3.52638 11.1901C3.66763 11.1632 3.812 11.1276 3.952 11.0929C4.47638 10.9636 5.01888 10.8295 5.46669 11.1476C5.76638 11.3601 5.93544 11.7214 5.98607 12.2514C6.04357 12.8629 5.91232 13.4733 5.61638 13.9701C5.29794 14.5048 4.82044 14.8582 4.27263 14.9657C4.15207 14.9893 4.02952 15.0011 3.90669 15.0011ZM10.3183 7.79075C10.1551 7.79016 9.99212 7.77763 9.83075 7.75325C9.09138 7.64388 8.532 7.33919 8.16825 6.847C7.71013 6.22856 7.5745 5.34294 7.75638 4.13919C7.90607 3.14137 8.25419 2.13606 8.71107 1.38137C9.44044 0.176062 10.2004 -0.0330001 10.7111 0.00387494C11.3023 0.0469999 11.8264 0.334187 12.227 0.835125C12.9111 1.69044 13.1536 3.05387 12.9101 4.67387C12.7454 5.76762 12.4664 6.51606 12.0317 7.02731C11.597 7.53856 11.0248 7.79075 10.3183 7.79075ZM9.09419 12.0011C8.97167 12.001 8.84944 11.9892 8.72919 11.9657C8.18044 11.8582 7.70294 11.5048 7.38544 10.9701C7.0895 10.4733 6.95825 9.86294 7.01575 9.25138C7.06575 8.72013 7.2345 8.36012 7.53513 8.14731C7.98294 7.8295 8.52544 7.96325 9.04982 8.09294C9.18982 8.12731 9.33419 8.16294 9.47544 8.19012L9.672 8.22669C10.2854 8.3395 10.8648 8.44544 11.1876 8.9195C11.3864 9.21106 11.4398 9.57575 11.3508 10.0332C11.2236 10.6779 10.8472 11.2462 10.3033 11.6148C9.92419 11.8692 9.50575 12.0011 9.09419 12.0011Z" fill="#FFE3C5"/>
</svg>
